<?xml version="1.0" encoding="UTF-8" standalone="no"?>
<!-- Uploaded to: SVG Repo, www.svgrepo.com, Generator: SVG Repo Mixer Tools -->

<svg
   width="800px"
   height="800px"
   viewBox="0 0 24 24"
   fill="none"
   version="1.1"
   id="svg18"
   sodipodi:docname="text-column-two-right.svg"
   inkscape:version="1.2.2 (b0a8486541, 2022-12-01)"
   xmlns:inkscape="http://www.inkscape.org/namespaces/inkscape"
   xmlns:sodipodi="http://sodipodi.sourceforge.net/DTD/sodipodi-0.dtd"
   xmlns="http://www.w3.org/2000/svg"
   xmlns:svg="http://www.w3.org/2000/svg">
  <defs
     id="defs22" />
  <sodipodi:namedview
     id="namedview20"
     pagecolor="#ffffff"
     bordercolor="#000000"
     borderopacity="0.25"
     inkscape:showpageshadow="2"
     inkscape:pageopacity="0.0"
     inkscape:pagecheckerboard="0"
     inkscape:deskcolor="#d1d1d1"
     showgrid="false"
     inkscape:zoom="0.9775"
     inkscape:cx="401.02302"
     inkscape:cy="400"
     inkscape:window-width="1920"
     inkscape:window-height="995"
     inkscape:window-x="0"
     inkscape:window-y="0"
     inkscape:window-maximized="1"
     inkscape:current-layer="svg18" />
  <path
     d="M 21,6 C 21,5.44772 20.55228,5 20,5 h -9 c -0.5523,0 -1,0.44772 -1,1 0,0.55228 0.4477,1 1,1 h 9 c 0.55229,0 1,-0.44772 1,-1 z"
     fill="#212121"
     id="path2" />
  <path
     d="M 8,6 C 8,5.44772 7.5523,5 7,5 H 4 C 3.4477,5 3,5.44772 3,6 3,6.55228 3.4477,7 4,7 H 7 C 7.5523,7 8,6.55228 8,6 Z"
     fill="#212121"
     id="path4" />
  <path
     d="M 21,10 C 21,9.44772 20.55228,9 20,9 h -9 c -0.5523,0 -1,0.44772 -1,1 0,0.5523 0.4477,1 1,1 h 9 c 0.55229,0 1,-0.4477 1,-1 z"
     fill="#212121"
     id="path6" />
  <path
     d="M 8,10 C 8,9.44772 7.5523,9 7,9 H 4 c -0.5523,0 -1,0.44772 -1,1 0,0.5523 0.4477,1 1,1 h 3 c 0.5523,0 1,-0.4477 1,-1 z"
     fill="#212121"
     id="path8" />
  <path
     d="m 21,14 c 0,-0.5523 -0.44772,-1 -1,-1 h -9 c -0.5523,0 -1,0.4477 -1,1 0,0.5523 0.4477,1 1,1 h 9 c 0.55229,0 1,-0.4477 1,-1 z"
     fill="#212121"
     id="path10" />
  <path
     d="M 8,14 C 8,13.4477 7.5523,13 7,13 H 4 c -0.5523,0 -1,0.4477 -1,1 0,0.5523 0.4477,1 1,1 h 3 c 0.5523,0 1,-0.4477 1,-1 z"
     fill="#212121"
     id="path12" />
  <path
     d="m 21,18 c 0,-0.5523 -0.44772,-1 -1,-1 h -9 c -0.5523,0 -1,0.4477 -1,1 0,0.5523 0.4477,1 1,1 h 9 c 0.55229,0 1,-0.4477 1,-1 z"
     fill="#212121"
     id="path14" />
  <path
     d="M 8,18 C 8,17.4477 7.5523,17 7,17 H 4 c -0.5523,0 -1,0.4477 -1,1 0,0.5523 0.4477,1 1,1 h 3 c 0.5523,0 1,-0.4477 1,-1 z"
     fill="#212121"
     id="path16" />
  <path
     style="fill:#800080;stroke-width:1.93326;stroke-opacity:0.854302"
     d="m 127.7818,232.19369 c -10.13518,-2.0094 -18.91273,-8.59311 -23.77186,-17.83037 -2.35157,-4.47036 -2.71233,-6.38076 -2.71233,-14.36332 0,-8.0114 0.3568,-9.88577 2.74729,-14.43233 3.59782,-6.84279 11.74908,-14.09039 18.49194,-16.44186 4.91451,-1.71386 9.82755,-1.86238 61.60638,-1.86238 h 56.26599 l 5.77796,2.70891 c 21.27614,9.975 26.43936,36.68502 10.22565,52.89873 -5.21883,5.21882 -10.31163,7.83696 -18.01423,9.26087 -7.07947,1.30871 -104.05423,1.36284 -110.61679,0.0618 z"
     id="path1237"
     transform="scale(0.03)" />
  <path
     style="fill:#800080;stroke-width:1.93326;stroke-opacity:0.854302"
     d="m 123.5804,364.35664 c -14.30492,-4.9998 -22.81314,-16.74352 -22.81314,-31.48853 0,-12.71755 8.87242,-25.43996 20.87259,-29.92981 5.92031,-2.21507 6.50498,-2.23303 63.39541,-1.94761 l 57.41998,0.28808 5.22517,2.75671 c 6.89342,3.63686 14.10457,11.77036 16.40327,18.50136 5.33359,15.61764 -1.93863,33.0204 -16.86062,40.34829 l -5.79083,2.84377 -56.26599,0.24356 c -52.12278,0.22562 -56.65772,0.10664 -61.58584,-1.61582 z"
     id="path1239"
     transform="scale(0.03)" />
  <path
     style="fill:#800080;stroke-width:1.93326;stroke-opacity:0.854302"
     d="m 121.26293,496.99663 c -7.73615,-2.99333 -15.38636,-10.79921 -18.39319,-18.76747 -6.068087,-16.08073 1.31787,-33.81079 17.1835,-41.24915 l 5.77796,-2.70891 h 57.80051 57.80052 l 5.79083,2.84377 c 14.92199,7.32789 22.19421,24.73065 16.86062,40.34829 -2.2987,6.731 -9.50985,14.8645 -16.40327,18.50136 l -5.22517,2.75671 -57.80051,0.21941 c -56.67054,0.21512 -57.90982,0.17711 -63.3918,-1.94401 z"
     id="path1241"
     transform="scale(0.03)" />
  <path
     style="fill:#800080;stroke-width:1.93326;stroke-opacity:0.854302"
     d="m 127.7818,632.19369 c -10.13518,-2.0094 -18.91273,-8.59311 -23.77186,-17.83037 -2.35157,-4.47036 -2.71233,-6.38076 -2.71233,-14.36332 0,-8.0114 0.3568,-9.88577 2.74729,-14.43233 3.59782,-6.84279 11.74908,-14.09039 18.49194,-16.44186 4.91451,-1.71386 9.82755,-1.86238 61.60638,-1.86238 h 56.26599 l 5.77796,2.70891 c 21.27614,9.975 26.43936,36.68502 10.22565,52.89873 -5.21883,5.21882 -10.31163,7.83696 -18.01423,9.26087 -7.07947,1.30871 -104.05423,1.36284 -110.61679,0.0618 z"
     id="path1243"
     transform="scale(0.03)" />
</svg>
