<?xml version="1.0" encoding="UTF-8" standalone="no"?>
<!-- Uploaded to: SVG Repo, www.svgrepo.com, Generator: SVG Repo Mixer Tools -->

<svg
   width="800px"
   height="800px"
   viewBox="0 0 24 24"
   fill="none"
   version="1.1"
   id="svg18"
   xmlns="http://www.w3.org/2000/svg"
   xmlns:svg="http://www.w3.org/2000/svg">
  <defs
     id="defs22" />
  <path
     d="M 21,6 C 21,5.44772 20.55228,5 20,5 h -9 c -0.5523,0 -1,0.44772 -1,1 0,0.55228 0.4477,1 1,1 h 9 c 0.55229,0 1,-0.44772 1,-1 z"
     fill="#212121"
     id="path2" />
  <path
     d="M 8,6 C 8,5.44772 7.5523,5 7,5 H 4 C 3.4477,5 3,5.44772 3,6 3,6.55228 3.4477,7 4,7 H 7 C 7.5523,7 8,6.55228 8,6 Z"
     fill="#212121"
     id="path4" />
  <path
     d="M 21,10 C 21,9.44772 20.55228,9 20,9 h -9 c -0.5523,0 -1,0.44772 -1,1 0,0.5523 0.4477,1 1,1 h 9 c 0.55229,0 1,-0.4477 1,-1 z"
     fill="#212121"
     id="path6" />
  <path
     d="M 8,10 C 8,9.44772 7.5523,9 7,9 H 4 c -0.5523,0 -1,0.44772 -1,1 0,0.5523 0.4477,1 1,1 h 3 c 0.5523,0 1,-0.4477 1,-1 z"
     fill="#212121"
     id="path8" />
  <path
     d="m 21,14 c 0,-0.5523 -0.44772,-1 -1,-1 h -9 c -0.5523,0 -1,0.4477 -1,1 0,0.5523 0.4477,1 1,1 h 9 c 0.55229,0 1,-0.4477 1,-1 z"
     fill="#212121"
     id="path10" />
  <path
     d="M 8,14 C 8,13.4477 7.5523,13 7,13 H 4 c -0.5523,0 -1,0.4477 -1,1 0,0.5523 0.4477,1 1,1 h 3 c 0.5523,0 1,-0.4477 1,-1 z"
     fill="#212121"
     id="path12" />
  <path
     d="m 21,18 c 0,-0.5523 -0.44772,-1 -1,-1 h -9 c -0.5523,0 -1,0.4477 -1,1 0,0.5523 0.4477,1 1,1 h 9 c 0.55229,0 1,-0.4477 1,-1 z"
     fill="#212121"
     id="path14" />
  <path
     d="M 8,18 C 8,17.4477 7.5523,17 7,17 H 4 c -0.5523,0 -1,0.4477 -1,1 0,0.5523 0.4477,1 1,1 h 3 c 0.5523,0 1,-0.4477 1,-1 z"
     fill="#212121"
     id="path16" />
  <path
     style="fill:#800080;stroke-width:1.93326;stroke-opacity:0.854302"
     d="m 360.81352,232.1665 c -6.8714,-1.36823 -13.34494,-5.09613 -18.17137,-10.46428 -17.37303,-19.32298 -6.74861,-49.1604 19.21385,-53.95982 3.62141,-0.66946 59.04103,-0.93331 158.42976,-0.7543 145.68235,0.2624 153.08792,0.36381 157.71342,2.15975 6.40741,2.4878 14.54171,9.92622 17.95592,16.41982 2.39049,4.54656 2.74728,6.42093 2.74728,14.43233 0,8.0114 -0.35679,9.88577 -2.74728,14.43233 -3.41421,6.4936 -11.54851,13.93202 -17.95592,16.41982 -4.63131,1.79819 -11.89863,1.89144 -158.81759,2.03784 -84.68031,0.0844 -155.94594,-0.24119 -158.36807,-0.72349 z"
     id="path1276"
     transform="scale(0.03)" />
  <path
     style="fill:#800080;stroke-width:1.93326;stroke-opacity:0.854302"
     d="m 358.05627,364.81604 c -9.45826,-3.00664 -16.14477,-8.59344 -20.71697,-17.30972 -2.3898,-4.55584 -2.78577,-6.53738 -2.79809,-14.00248 -0.0123,-7.47475 0.38871,-9.51646 2.85639,-14.54163 3.52116,-7.17048 10.30565,-13.33577 17.73326,-16.1148 5.50079,-2.0581 7.21212,-2.08015 161.49318,-2.08015 h 155.93347 l 5.88904,2.20337 c 3.9913,1.49334 7.57926,3.89362 11.13424,7.44859 16.19176,16.19176 11.32663,42.77407 -9.62644,52.59729 l -5.78555,2.71239 -156.01023,0.19398 c -123.82128,0.15395 -156.85453,-0.0744 -160.1023,-1.10684 z"
     id="path1278"
     transform="scale(0.03)" />
  <path
     style="fill:#800080;stroke-width:1.93326;stroke-opacity:0.854302"
     d="m 354.53972,496.99038 c -6.74697,-2.5905 -14.61166,-10.09636 -17.7656,-16.95503 -3.44164,-7.48433 -3.17642,-20.40881 0.56518,-27.54167 3.6354,-6.93041 9.14235,-12.24588 16.11339,-15.55315 l 5.62659,-2.66943 h 157.6479 157.64791 l 7.01947,3.58056 c 15.12728,7.71627 21.62452,24.58596 15.63481,40.59488 -2.97306,7.94624 -10.63659,15.60976 -18.58282,18.58283 l -5.88904,2.20337 -156.2276,-0.0533 c -155.89317,-0.0532 -156.23952,-0.0579 -161.79019,-2.18905 z"
     id="path1280"
     transform="scale(0.03)" />
  <path
     style="fill:#800080;stroke-width:1.93326;stroke-opacity:0.854302"
     d="m 360.81352,632.1665 c -6.8714,-1.36823 -13.34494,-5.09613 -18.17137,-10.46428 -17.37303,-19.32298 -6.74861,-49.1604 19.21385,-53.95982 3.62141,-0.66946 59.04103,-0.93331 158.42976,-0.7543 145.68235,0.2624 153.08792,0.36381 157.71342,2.15975 6.40741,2.4878 14.54171,9.92622 17.95592,16.41982 2.39049,4.54656 2.74728,6.42093 2.74728,14.43233 0,8.0114 -0.35679,9.88577 -2.74728,14.43233 -3.41421,6.4936 -11.54851,13.93202 -17.95592,16.41982 -4.63131,1.79819 -11.89863,1.89144 -158.81759,2.03784 -84.68031,0.0844 -155.94594,-0.24119 -158.36807,-0.72349 z"
     id="path1282"
     transform="scale(0.03)" />
</svg>
